<svg id="layer" xmlns="http://www.w3.org/2000/svg" viewBox="0 0 745 130"><defs><style>.cls-1{fill:#ff5a5f;}</style></defs><path class="cls-1" d="M383.62,33.7a8.35,8.35,0,0,1-16.7,0,8.25,8.25,0,0,1,8.35-8.35A8.42,8.42,0,0,1,383.62,33.7ZM349.19,50.53v2s-4-5.13-12.47-5.13c-14,0-24.92,10.66-24.92,25.43s10.79,25.44,24.92,25.44c8.61,0,12.47-5.27,12.47-5.27v2.19A1.76,1.76,0,0,0,351,97h10.4V48.73H351A1.84,1.84,0,0,0,349.19,50.53Zm0,31a12.76,12.76,0,0,1-10.41,5.27c-8.22,0-14.52-5.14-14.52-13.88S330.56,59,338.78,59a13.12,13.12,0,0,1,10.41,5.27ZM369.1,48.73h12.33V97H369.1Zm184.24-1.28c-8.48,0-12.46,5.13-12.46,5.13V25.48H528.54V97H539a1.84,1.84,0,0,0,1.8-1.8V93.05h0s4,5.27,12.46,5.27c14,0,24.92-10.79,24.92-25.44S567.21,47.45,553.34,47.45Zm-2.06,39.18a12.56,12.56,0,0,1-10.4-5.27V64.15a13.91,13.91,0,0,1,10.4-5.27c8.23,0,14.52,5.14,14.52,13.88S559.51,86.63,551.28,86.63ZM522.12,68.39V97.17H509.78V69.8c0-8-2.57-11.18-9.5-11.18a13.77,13.77,0,0,0-10,4.76V97H477.92V48.73h9.77a1.84,1.84,0,0,1,1.79,1.8v2a17.74,17.74,0,0,1,13.11-5.13,20,20,0,0,1,13.49,4.62C520.45,55.67,522.12,60.29,522.12,68.39ZM448,47.45c-8.48,0-12.47,5.13-12.47,5.13V25.48H423.19V97H433.6a1.84,1.84,0,0,0,1.8-1.8V93.05h0s4,5.27,12.46,5.27c14,0,24.92-10.79,24.92-25.44S462,47.45,448,47.45Zm-2.06,39.18a12.59,12.59,0,0,1-10.41-5.27V64.15a14,14,0,0,1,10.41-5.27c8.22,0,14.52,5.14,14.52,13.88S454.15,86.63,445.93,86.63Zm-33.4-39.18a19.75,19.75,0,0,1,5.65.64V59.52s-10.28-3.47-16.7,3.86V97.17H389.14V48.73h10.41a1.84,1.84,0,0,1,1.8,1.8v2A16.89,16.89,0,0,1,412.53,47.45ZM284.43,92.67c-.64-1.54-1.28-3.21-1.92-4.63-1-2.31-2.06-4.49-3-6.55l-.13-.13c-8.86-19.27-18.37-38.8-28.39-58.07l-.39-.77c-1-1.93-2-4-3.08-6a36.9,36.9,0,0,0-4.62-7.06,20.78,20.78,0,0,0-16.32-8,21.57,21.57,0,0,0-16.45,7.71,44.37,44.37,0,0,0-4.62,7.06c-1,2.06-2.06,4.12-3.09,6l-.38.77c-9.89,19.28-19.53,38.8-28.39,58.08l-.13.25c-.9,2.06-1.93,4.24-3,6.56q-1,2.11-1.92,4.62a28.78,28.78,0,0,0-1.55,13.88,27.3,27.3,0,0,0,16.71,21.32,26.23,26.23,0,0,0,10.4,2.06,28.89,28.89,0,0,0,3.34-.26,33.74,33.74,0,0,0,12.85-4.37c5.27-3,10.28-7.19,15.93-13.36,5.65,6.17,10.79,10.41,15.93,13.36a33.74,33.74,0,0,0,12.85,4.37,28.89,28.89,0,0,0,3.34.26,25.83,25.83,0,0,0,10.41-2.06,27.24,27.24,0,0,0,16.7-21.32A24.26,24.26,0,0,0,284.43,92.67Zm-57.94,6.68c-6.94-8.74-11.43-17-13-23.9a20.63,20.63,0,0,1-.38-7.83,12.58,12.58,0,0,1,2.05-5.4,13.66,13.66,0,0,1,11.31-5.65c4.75,0,9,2,11.31,5.65a12.58,12.58,0,0,1,2,5.4,20.53,20.53,0,0,1-.38,7.83C237.92,82.26,233.43,90.49,226.49,99.35Zm51.26,6a19.08,19.08,0,0,1-11.69,15,19.44,19.44,0,0,1-9.76,1.29,25.35,25.35,0,0,1-9.77-3.35c-4.62-2.56-9.25-6.55-14.64-12.46C240.37,95.5,245.5,86,247.43,77.51a32.06,32.06,0,0,0,.64-10.92,20.92,20.92,0,0,0-3.46-8.74,21.67,21.67,0,0,0-18.12-9.12,22,22,0,0,0-18.12,9.12,20.92,20.92,0,0,0-3.46,8.74,26.53,26.53,0,0,0,.64,10.92c1.93,8.48,7.19,18.11,15.54,28.52-5.26,5.91-10,9.89-14.64,12.46a25.11,25.11,0,0,1-9.77,3.34,20.42,20.42,0,0,1-9.76-1.28,19.08,19.08,0,0,1-11.69-15,21.25,21.25,0,0,1,1.15-10c.39-1.29,1-2.57,1.67-4.12.9-2,1.93-4.24,3-6.42l.13-.26C190,65.56,199.51,46,209.4,27l.39-.77c1-1.93,2.05-4,3.08-5.91a28.4,28.4,0,0,1,3.6-5.66,13.5,13.5,0,0,1,20.56,0,28.36,28.36,0,0,1,3.59,5.66c1,1.92,2.06,4,3.09,5.91l.38.77c9.77,19.14,19.27,38.67,28.14,57.81V85c1,2.06,1.93,4.37,2.95,6.42a43.07,43.07,0,0,1,1.67,4.12A21.58,21.58,0,0,1,277.75,105.39Z"/></svg>