<?xml version="1.0" encoding="utf-8"?>
<!-- Generator: Adobe Illustrator 24.1.2, SVG Export Plug-In . SVG Version: 6.00 Build 0)  -->
<svg version="1.1" xmlns="http://www.w3.org/2000/svg" xmlns:xlink="http://www.w3.org/1999/xlink" x="0px" y="0px"
	 viewBox="0 0 745 130" style="enable-background:new 0 0 745 130;" xml:space="preserve">
<style type="text/css">
	.st0{display:none;}
	.st1{display:inline;}
	.st2{fill:#FFFFFF;}
	.st3{fill:#009AA6;}
</style>
<g id="layer" class="st0">
	<g class="st1">
		<polygon class="st2" points="184,42.4 161.9,42.4 161.9,32.9 216.7,32.9 216.7,42.4 194.7,42.4 194.7,96.3 184,96.3 		"/>
		<polygon class="st2" points="226.7,32.9 238.2,32.9 252.9,81.1 266.9,32.9 276.8,32.9 290.6,81.1 290.8,81.1 305.2,32.9 
			316.7,32.9 296.7,96.3 285.2,96.3 271.7,49.8 258.3,96.3 246.8,96.3 		"/>
		<path class="st2" d="M353.1,31.6c18.3,0,32.3,12.8,32.3,32.4c0,20.2-14,33.4-32.3,33.4S320.6,84.2,320.6,64
			C320.6,44.4,334.8,31.6,353.1,31.6z M353.1,88c11.7,0,21.3-8.8,21.3-23.8c0-14.1-9.3-23.1-21.3-23.1s-21.2,8.8-21.2,23.1
			C331.9,79.1,341.2,88,353.1,88L353.1,88z"/>
		<polygon class="st2" points="478.4,32.9 489,32.9 489,67.1 489,96.3 478.4,96.3 478.4,60.9 		"/>
		<path class="st2" d="M535.5,31.6c8.1,0,16,2.5,22.5,7.2c0,0-6.1,7.4-6.6,7.2c-4.6-3-10.1-4.7-15.6-4.7c-12.9,0-21.5,9.3-21.5,22.9
			c0,14.4,8.1,23.8,21.5,23.8c4.4,0,8.7-1.1,12.7-3V69.8h-15.8v-8.1h25.9v29c-6.8,4.6-14.8,7-23,6.9c-19.8,0-32.3-13.5-32.3-33.4
			C503.3,45.5,516,31.6,535.5,31.6z"/>
		<polygon class="st2" points="573.9,32.9 585,32.9 605.7,62.6 626.5,32.9 637.5,32.9 637.5,96.3 627,96.3 627,48.9 605.7,78.8 
			584.5,48.9 584.5,96.3 573.9,96.3 		"/>
		<path class="st2" d="M671.1,32.9h12.7l23.5,63.4h-11.7l-4.7-13.7h-26.7l-4.9,13.7h-11.7L671.1,32.9z M667.1,73.9h20.5l-10.2-29.7
			h-0.2L667.1,73.9z"/>
		<path class="st2" d="M422.1,82.6c5.6,3.2,11,5.2,18.1,5.2c8.3,0,12.4-3.4,12.4-8.6C452.7,65,417,74.2,417,50
			c0-10.1,8.6-18.2,22.8-18.2c8.1-0.1,16.1,1.9,23.2,5.8l-7,7.4c-5.2-2.2-9.5-3.6-15.8-3.6c-7.4,0-11.5,3.6-11.5,8.6
			c0,14.2,35.5,4.5,35.5,29.2c0,10.3-7.9,18.4-23.7,18.4c-9.3,0-19.4-3.4-25.5-7.6L422.1,82.6z"/>
		<polygon class="st3" points="66,1 3,64.6 66,128 129.4,64.6 		"/>
		<path class="st2" d="M32.8,82.6c-0.5-20.4,23.7-17.7,23.7-28.1c0-3.4-2.5-6.3-8.3-6.3c-4.3,0-8.6,2.2-11.5,4.9l-4.3-4.5
			c4.4-4.2,10.2-6.6,16.2-6.7c10,0,15.1,5.6,15.1,12.3c0,15.5-23.5,12.8-23.5,25.6h23.2V86H32.9v-3.4L32.8,82.6z"/>
		<path class="st2" d="M81.8,81.1c-4.7,0-7.6-2.9-7.6-8.8c0-7.4,4.9-14,10.8-14c4.7,0,7.6,2.9,7.6,8.8
			C92.4,74.5,87.6,81.1,81.8,81.1z M111.3,52.5H85.4c-10.6,0-18.3,8.3-18.3,19.6c0,9.2,5.6,14.4,14,14.4c10.5,0,18.5-8.6,18.5-19.6
			c0.1-3.3-0.8-6.5-2.7-9.2h9L111.3,52.5z"/>
	</g>
</g>
<g id="Layer_2">
	<g>
		<g>
			<g transform="translate(39.2 46.355)">
				<path class="st2" d="M-25.6-1.1h21.4v1.6h-1.2C-7.6,0.4-9,0.6-9.7,1c-0.7,0.4-1.2,1.1-1.4,2.1c-0.2,1-0.3,3.5-0.3,7.3v15.8
					c0,3.9-0.1,6.9-0.5,8.9c-0.3,2-1.2,4-2.6,6c-1.4,1.9-3.3,3.4-5.6,4.5c-2.3,1-5.1,1.6-8.2,1.6c-3.5,0-6.2-0.7-8.1-1.9
					c-1.9-1.3-2.8-2.8-2.8-4.6c0-1.1,0.3-2,1-2.7c0.7-0.7,1.5-1.1,2.5-1.1c1,0,1.9,0.3,2.5,1c0.7,0.7,1,1.5,1,2.4
					c0,0.6-0.1,1.1-0.4,1.8c-0.3,0.5-0.4,0.9-0.4,1.2c0,0.7,0.4,1.3,1.3,1.7c0.9,0.4,1.9,0.6,3.2,0.6c2.6,0,4.8-0.8,6.5-2.5
					c1.8-1.6,2.8-3.6,3.2-5.8c0.4-2.2,0.5-5.9,0.5-11.1V10.4c0-3.7-0.1-6-0.3-7.1c-0.2-1.1-0.7-1.8-1.4-2.2
					c-0.7-0.4-2.2-0.6-4.6-0.6h-1.1L-25.6-1.1z"/>
			</g>
			<g transform="translate(48.357 40.8158)">
				<path class="st2" d="M5.6,28.8v9.8c0,3.7,0.1,6,0.3,7.2c0.2,1.1,0.6,2,1.4,2.5c0.7,0.6,2.2,0.8,4.3,0.8h1.5v1.6H-8.2v-1.6H-7
					c2,0,3.4-0.3,4.1-0.7c0.8-0.5,1.3-1.3,1.5-2.4c0.2-1,0.3-3.5,0.3-7.4V15.9c0-3.7-0.1-6.1-0.3-7.1C-1.6,7.7-2.1,7-2.8,6.6
					C-3.5,6.2-5,6-7.4,6h-0.9V4.4l5.8-0.2C2.2,4,5.9,3.9,8.5,3.9c4.8,0,8.5,0.4,11.1,1.1c2.6,0.8,4.7,2.1,6.4,4
					c1.7,1.9,2.5,4.3,2.5,7.2c0,2.5-0.6,4.7-1.7,6.7c-1.1,1.9-2.7,3.4-4.8,4.4c-2.1,1-5.8,1.5-11.1,1.5H5.6z M5.6,27.2H9
					c2.7,0,4.8-0.3,6.5-0.8c1.6-0.5,3-1.7,4.1-3.4c1.1-1.7,1.6-3.8,1.6-6.3c0-3.8-0.9-6.6-2.8-8.4c-1.9-1.8-4.9-2.7-9.1-2.7
					c-1.5,0-2.7,0.1-3.6,0.1L5.6,27.2z"/>
			</g>
			<g transform="translate(62.2795 37.6739)">
				<path class="st2" d="M53.1,45.8L69.9,7.6h14.3v1.6h-1.7c-2.3,0-3.8,0.2-4.5,0.6c-0.7,0.4-1.2,1.1-1.4,2.1
					c-0.2,1-0.4,3.5-0.4,7.3v22.7c0,3.6,0.1,6,0.3,7.2c0.2,1.1,0.6,2,1.4,2.5c0.7,0.6,2.2,0.8,4.3,0.8h2v1.6H61.9v-1.6h1.6
					c2,0,3.3-0.3,4.1-0.7c0.8-0.5,1.3-1.3,1.5-2.3c0.2-1.1,0.3-3.5,0.3-7.4V12.3L51.2,53.8h-1.7L31.2,12.3v27.1
					c0,3.7,0.1,6.2,0.3,7.6c0.2,1.3,0.9,2.5,2.1,3.5c1.2,1,2.9,1.6,5,1.7v1.6H22v-1.6c2-0.1,3.6-0.6,4.9-1.6c1.3-1,2-2.2,2.3-3.6
					c0.3-1.4,0.4-4,0.4-7.9V19.1c0-3.7-0.1-6.1-0.3-7.1c-0.2-1.1-0.7-1.8-1.4-2.2c-0.7-0.4-2.2-0.6-4.6-0.6H22V7.6h14.1L53.1,45.8z"
					/>
			</g>
			<g transform="translate(69.9306 39.9676)">
				<path class="st2" d="M79.1,33.4c0-5.5,1.8-9.9,5.5-13.2c3.7-3.3,8.2-5,13.7-5c5.5,0,10.1,1.6,13.9,4.9c3.7,3.3,5.6,7.8,5.6,13.4
					c0,5.5-1.8,10-5.3,13.4c-3.6,3.4-8.2,5.1-14,5.1c-5.6,0-10.3-1.7-13.9-5.1C80.9,43.6,79.1,39,79.1,33.4 M85.2,33.6
					c0,5.7,1.1,10,3.4,12.9c2.3,2.9,5.7,4.3,10.2,4.3c4,0,7.1-1.4,9.4-4.3c2.3-2.9,3.5-7.1,3.5-12.8c0-5.5-1.1-9.8-3.4-12.7
					c-2.3-2.9-5.6-4.4-9.9-4.4c-4.3,0-7.5,1.4-9.8,4.3C86.3,23.7,85.2,28,85.2,33.6"/>
			</g>
			<g transform="translate(88.259 35.8789)">
				<path class="st2" d="M141.6,55.5H132c-1.7-1.2-4.3-4.3-7.7-9.3c-1.1-1.6-2.3-3.1-3.5-4.6c-1.2-1.5-2-2.4-2.5-2.7
					c-0.5-0.3-1.2-0.5-2.1-0.5h-1.4v7.8c0,2.8,0.1,4.6,0.2,5.5c0.1,0.9,0.5,1.5,1.1,1.9c0.6,0.4,1.7,0.6,3.3,0.6h1.7v1.2h-17v-1.2
					h1.2c1.5,0,2.6-0.2,3.2-0.6c0.6-0.4,1-1,1.1-1.8c0.2-0.8,0.2-2.7,0.2-5.7V28.8c0-2.8-0.1-4.7-0.2-5.5c-0.2-0.8-0.5-1.4-1.1-1.7
					c-0.5-0.3-1.7-0.5-3.6-0.5h-0.6V20l5.1-0.2c3.4-0.1,6.1-0.2,8.1-0.2c3.4,0,6.1,0.3,8.3,0.9c2.1,0.6,3.8,1.7,5.1,3.1
					c1.3,1.4,2,3.2,2,5.1c0,2.3-0.9,4.3-2.5,6c-1.7,1.6-4.2,2.7-7.5,3.1c1.5,0.7,3.9,3.3,7.2,7.7c2.7,3.6,4.8,5.9,6.3,7.1
					c1.5,1.1,3.3,1.7,5.4,1.8V55.5z M114.8,37.2c1.3,0,2.6-0.1,4-0.2c1.4-0.1,2.6-0.3,3.6-0.6c1-0.3,1.8-0.8,2.5-1.4
					c0.6-0.6,1.1-1.4,1.5-2.4c0.4-1,0.5-2.2,0.5-3.6c0-2.5-0.6-4.5-1.8-6c-1.2-1.5-3.9-2.3-8.1-2.3c-0.6,0-1.4,0-2.2,0.1V37.2z"/>
			</g>
			<g transform="translate(93.8446 39.3245)">
				<path class="st2" d="M160.6,36.9h15.4v1.2c-1.7,0-2.9,0.2-3.4,0.5c-0.6,0.3-1,0.9-1.2,1.7c-0.2,0.8-0.3,2.7-0.3,5.8v3.8
					c-0.4-0.1-0.8-0.1-1.1-0.1c-1.3,0-3.1,0.4-5.3,1.2c-3,1.1-5.7,1.7-8.3,1.7c-5.1,0-9.3-1.7-12.7-5c-3.4-3.3-5.1-7.6-5.1-12.7
					c0-5.1,1.6-9.5,4.8-13.4c3.2-3.8,7.6-5.7,13.1-5.7c4.8,0,8.7,1.7,11.8,5.2c0.6-1.2,1-2.6,1.1-4h1.2V29h-1.2
					c-0.5-3.6-1.9-6.5-4.1-8.6c-2.3-2.1-5-3.2-8.2-3.2c-3.3,0-6.2,1.2-8.7,3.7c-2.5,2.5-3.7,6.9-3.7,13.2c0,6.3,1.2,10.8,3.6,13.4
					c2.4,2.6,5.3,3.9,8.9,3.9c1.8,0,3.5-0.4,4.9-1.1c1.5-0.7,2.5-1.6,3-2.7c0.5-1.1,0.8-2.4,0.8-4.1c0-1.9-0.1-3.2-0.4-3.8
					c-0.3-0.6-0.6-1.1-1.2-1.3c-0.5-0.2-1.5-0.3-2.9-0.3h-0.9V36.9z"/>
			</g>
			<g transform="translate(103.184 38.8571)">
				<path class="st2" d="M192.4,39.4h-13.5l-0.9,2.2c-1.4,3.3-2,5.4-2,6.4c0,1.1,0.4,1.9,1.1,2.4c0.7,0.6,1.7,0.8,2.8,0.8v1.2h-10.7
					v-1.2c1.6-0.3,2.7-0.8,3.5-1.7c0.8-0.9,1.7-2.7,2.8-5.5c0.1-0.3,0.5-1.3,1.3-3l10.4-24.6h1L200,44.7l1.6,3.7
					c0.4,0.8,0.9,1.5,1.5,2c0.6,0.5,1.6,0.8,2.8,0.9v1.2h-14v-1.2c1.7,0,2.9-0.1,3.5-0.4c0.6-0.3,0.9-0.8,0.9-1.5
					c0-0.4-0.4-1.5-1.2-3.4L192.4,39.4z M191.9,38.1l-6.2-15l-6.2,15H191.9z"/>
			</g>
			<g transform="translate(114.516 35.6904)">
				<path class="st2" d="M231,56.5l-25.2-33.4v24.7c0,2,0.1,3.4,0.3,4c0.2,0.6,0.8,1.2,1.7,1.8c0.9,0.5,2.4,0.8,4.2,0.8v1.2h-13.2
					v-1.2c1.7-0.1,3-0.4,3.9-0.9c0.9-0.5,1.4-1,1.6-1.6c0.2-0.6,0.3-1.9,0.3-4.1V29c0-2.7-0.1-4.6-0.4-5.5c-0.3-0.9-0.7-1.5-1.2-1.8
					c-0.6-0.3-1.8-0.4-3.7-0.4v-1.2h10.6l21,27.8V26.7c0-1.6-0.2-2.7-0.5-3.3c-0.3-0.6-1-1.1-2-1.5c-1-0.4-2.2-0.5-3.6-0.5v-1.2
					h12.8v1.2c-1.5,0.1-2.7,0.4-3.5,0.9c-0.9,0.5-1.4,1-1.6,1.6c-0.2,0.6-0.4,1.7-0.4,3.2v29.4L231,56.5z"/>
			</g>
			<g transform="translate(129.766 39.7717)">
				<path class="st2" d="M282.9,34.5h1.5v16.2h-1.5c-0.4-1.9-1.2-3.5-2.2-4.9c-4,4.6-9.2,6.8-15.5,6.8c-6.6,0-12.1-2.1-16.3-6.3
					s-6.3-9.8-6.3-16.8c0-4.6,1-8.9,2.9-12.9c1.9-4,4.7-7,8.2-9c3.5-2,7.3-2.9,11.4-2.9c3.4,0,6.6,0.7,9.3,2.1
					c2.8,1.4,4.9,3,6.3,4.7c1-1.9,1.6-3.9,1.8-6h1.6l0.4,17.5h-1.5c-1-6.2-3.1-10.5-6.2-13c-3.1-2.4-6.7-3.7-10.6-3.7
					c-4.8,0-8.6,2-11.5,5.9c-2.8,3.9-4.2,9.5-4.2,16.9c0,6.9,1.5,12.2,4.6,16c3.1,3.7,7,5.5,11.6,5.5c2.5,0,5-0.6,7.6-1.8
					c2.6-1.2,4.6-3.2,6.1-6.1C281.8,39.9,282.7,37.2,282.9,34.5"/>
			</g>
			<g transform="translate(138.617 39.9568)">
				<path class="st2" d="M313.1,33.5h-18.5v8.6c0,2.8,0.1,4.6,0.2,5.5c0.1,0.9,0.5,1.5,1.1,1.9c0.6,0.4,1.7,0.6,3.3,0.6h0.9v1.2H284
					v-1.2h0.9c1.5,0,2.6-0.2,3.2-0.6c0.6-0.4,1-1,1.1-1.8c0.2-0.8,0.3-2.7,0.3-5.7V24.7c0-2.8-0.1-4.7-0.3-5.5
					c-0.2-0.8-0.5-1.4-1.1-1.7c-0.5-0.3-1.7-0.5-3.5-0.5H284v-1.2h16.1V17h-0.7c-1.8,0-2.9,0.1-3.5,0.4c-0.5,0.3-0.9,0.8-1.1,1.6
					c-0.2,0.8-0.3,2.7-0.3,5.6v7h18.5v-7c0-2.8-0.1-4.7-0.2-5.5c-0.2-0.8-0.5-1.4-1-1.7c-0.5-0.3-1.7-0.5-3.5-0.5h-0.9v-1.2h16.1V17
					H323c-1.8,0-2.9,0.1-3.4,0.4c-0.5,0.3-0.9,0.8-1.1,1.6c-0.2,0.8-0.3,2.7-0.3,5.6v17.4c0,2.8,0.1,4.6,0.2,5.5
					c0.1,0.9,0.5,1.5,1,1.9c0.6,0.4,1.7,0.6,3.3,0.6h0.8v1.2h-16.1v-1.2h1.2c1.5,0,2.5-0.2,3.1-0.6c0.6-0.4,1-1,1.1-1.8
					c0.2-0.8,0.2-2.7,0.2-5.7V33.5z"/>
			</g>
			<g transform="translate(147.059 38.8766)">
				<path class="st2" d="M341.8,39.3h-13.5l-0.9,2.3c-1.4,3.3-2,5.4-2,6.4c0,1.1,0.4,1.9,1.1,2.4c0.7,0.6,1.7,0.8,2.8,0.8v1.2h-10.7
					v-1.2c1.6-0.2,2.8-0.8,3.5-1.7c0.8-0.9,1.7-2.7,2.8-5.5c0.1-0.3,0.5-1.3,1.3-3l10.4-24.6h1l11.8,28.2l1.6,3.7
					c0.4,0.8,0.9,1.5,1.5,2c0.6,0.5,1.5,0.8,2.8,0.9v1.2h-14v-1.2c1.7,0,2.9-0.1,3.5-0.4c0.6-0.3,0.9-0.8,0.9-1.5
					c0-0.4-0.4-1.5-1.2-3.4L341.8,39.3z M341.3,38l-6.2-15l-6.2,15H341.3z"/>
			</g>
			<g transform="translate(151.157 35.9833)">
				<path class="st2" d="M355.8,55V43.5h1.3c1.5,7.4,5,11.2,10.6,11.2c2.5,0,4.4-0.7,5.8-2.1c1.4-1.4,2.1-3,2.1-4.8
					c0-1.8-0.6-3.3-1.8-4.5c-1.2-1.2-3.4-2.5-6.6-3.8c-2.9-1.2-5-2.3-6.4-3.2c-1.4-0.9-2.6-2.1-3.4-3.6c-0.8-1.5-1.2-3-1.2-4.7
					c0-2.5,0.9-4.6,2.6-6.3c1.8-1.7,4-2.5,6.7-2.5c1.5,0,2.9,0.2,4.3,0.7c1.3,0.5,2.7,1.5,4.1,3c0.8-1,1.3-2,1.4-3.1h1.1v9.3h-1.1
					c-0.7-2.7-1.9-4.8-3.6-6.3c-1.7-1.5-3.7-2.3-5.9-2.3c-2.1,0-3.7,0.6-4.7,1.7c-1,1.1-1.5,2.4-1.5,3.7c0,1.6,0.6,3,1.9,4.1
					c1.2,1.1,3.5,2.4,6.6,3.9c3.1,1.4,5.3,2.5,6.7,3.3c1.4,0.8,2.5,2,3.4,3.5c0.8,1.5,1.3,3.2,1.3,5.1c0,3-1,5.5-3,7.4
					c-2,1.9-4.7,2.9-8.1,2.9c-3.9,0-7.2-1.5-9.8-4.5c-0.6,0.8-1,2-1.3,3.5L355.8,55z"/>
			</g>
			<g transform="translate(164.431 38.4141)">
				<path class="st2" d="M401,41.8h1.2l-0.8,11.1h-29.3v-1.2h0.7c1.7,0,2.9-0.2,3.4-0.7c0.5-0.5,0.8-1.1,1-1.8
					c0.1-0.7,0.2-2.6,0.2-5.6V26.2c0-2.7-0.1-4.5-0.2-5.4c-0.1-0.9-0.5-1.5-1-1.8c-0.5-0.3-1.7-0.5-3.4-0.5v-1.2h25.3l0.8,8.8h-1.2
					c-0.6-2.5-1.2-4.2-2.1-5.3c-0.8-1-1.8-1.7-2.9-2c-1.1-0.3-2.9-0.4-5.4-0.4h-4.9v14.9h3.7c1.7,0,2.9-0.1,3.6-0.4
					c0.7-0.3,1.1-0.7,1.4-1.3c0.2-0.6,0.3-1.8,0.3-3.5h1.2v12.1h-1.2c0-2-0.2-3.3-0.5-4c-0.3-0.7-0.8-1.1-1.4-1.3
					c-0.6-0.2-1.7-0.3-3.2-0.3h-3.9v8.4c0,4.2,0.3,6.7,0.8,7.4c0.5,0.7,2,1.1,4.4,1.1h2.6c1.9,0,3.4-0.2,4.6-0.6
					c1.2-0.4,2.3-1.4,3.4-2.9C399.5,46.6,400.4,44.5,401,41.8"/>
			</g>
			<g transform="translate(175.063 42.4835)">
				<path class="st2" d="M437.2,19.8h15.3v1.7c-1.9,0.5-3.6,1.4-5,2.8c-1.4,1.3-2.9,3.8-4.5,7.5c-1.3,3-2.5,5.2-3.5,6.7
					c2.5,3.6,4.5,6,6,6.9c1.5,1,3,1.5,4.6,1.5c2.2,0,4-1.1,5.2-3.2h1.7c-0.5,2-1.6,3.5-3.2,4.7c-1.6,1.2-3.5,1.8-5.6,1.8
					c-4.6,0-8.7-2.3-12.3-7c-4.2,4.7-8.6,7-13.3,7c-2.3,0-4.5-0.5-6.5-1.7c-2.1-1.1-3.8-2.7-5.1-4.6c-1.3-2-2-4.3-2-6.9
					c0-3,0.8-5.5,2.4-7.5c1.6-2,4.8-4.6,9.4-7.7c-2.8-3.9-4.2-7.4-4.2-10.5c0-2.5,1-4.7,2.9-6.6c1.9-1.9,4.3-2.9,7.2-2.9
					c2.6,0,4.9,0.7,7,2.2c2.1,1.5,3.1,3.3,3.1,5.7c0,3.7-3.4,7.2-10.2,10.6c4.2,5.7,8.2,11.2,12,16.6c1.3-1.9,2.4-3.9,3.2-5.9
					c0.8-2,1.2-3.6,1.2-4.7c0-2.7-1.9-4.3-5.6-4.7V19.8z M421.9,23.2c-2.5,1.5-4.4,3.3-5.8,5.3c-1.4,2-2,4-2,5.9
					c0,2.9,1.2,5.7,3.5,8.3c2.4,2.6,5,3.9,8,3.9c3.3,0,6.4-1.6,9.2-4.9C429.8,34.1,425.5,27.9,421.9,23.2 M425.4,18.9
					c4.7-2.8,7.1-5.8,7.1-9c0-1.9-0.5-3.5-1.6-4.7c-1.1-1.2-2.5-1.8-4.2-1.8c-1.7,0-3.1,0.6-4.1,1.7c-1,1.1-1.6,2.5-1.6,4.2
					C421.1,11.7,422.5,14.9,425.4,18.9"/>
			</g>
			<g transform="translate(191.452 39.8068)">
				<path class="st2" d="M493,34.3h1.6v16.2H493c-0.4-1.8-1.2-3.5-2.2-4.9c-4,4.6-9.2,6.9-15.5,6.9c-6.6,0-12.1-2.1-16.3-6.3
					c-4.2-4.2-6.3-9.8-6.3-16.8c0-4.6,1-8.9,2.9-12.9c1.9-4,4.7-7,8.1-9c3.5-1.9,7.3-2.9,11.5-2.9c3.4,0,6.6,0.7,9.3,2.1
					c2.8,1.4,4.9,3,6.3,4.7c1-1.9,1.6-3.9,1.8-6h1.5l0.4,17.5H493c-1-6.2-3.1-10.5-6.2-13c-3.1-2.5-6.7-3.7-10.6-3.7
					c-4.8,0-8.6,2-11.5,5.9c-2.8,3.9-4.2,9.6-4.2,16.9c0,6.9,1.6,12.2,4.6,16c3.1,3.7,7,5.5,11.6,5.5c2.5,0,5-0.6,7.6-1.8
					c2.6-1.2,4.6-3.2,6.1-6.1C491.9,39.7,492.8,37,493,34.3"/>
			</g>
			<g transform="translate(193.781 39.9676)">
				<path class="st2" d="M501,33.4c0-5.5,1.8-9.9,5.5-13.2c3.7-3.3,8.3-5,13.7-5c5.5,0,10.1,1.6,13.8,4.9c3.7,3.3,5.6,7.8,5.6,13.4
					c0,5.5-1.8,10-5.3,13.4c-3.5,3.4-8.2,5.1-14,5.1c-5.6,0-10.3-1.7-13.9-5.1C502.8,43.6,501,39,501,33.4 M507,33.6
					c0,5.7,1.1,10,3.4,12.9c2.3,2.9,5.7,4.3,10.2,4.3c4,0,7.1-1.4,9.4-4.3c2.3-2.9,3.5-7.1,3.5-12.8c0-5.5-1.1-9.8-3.4-12.7
					c-2.3-2.9-5.6-4.4-9.9-4.4c-4.3,0-7.5,1.4-9.8,4.3C508.2,23.7,507,28,507,33.6"/>
			</g>
			<g transform="translate(203.225 36.5483)">
				<path class="st2" d="M533.1,51.9c0-1.1,0.4-2,1.2-2.7c0.8-0.8,1.7-1.1,2.7-1.1c1.1,0,2,0.4,2.8,1.1c0.8,0.8,1.1,1.7,1.1,2.7
					c0,1.1-0.4,2-1.2,2.8c-0.8,0.8-1.7,1.1-2.8,1.1c-1.1,0-2-0.4-2.8-1.2C533.5,53.8,533.1,52.9,533.1,51.9"/>
			</g>
		</g>
	</g>
</g>
</svg>
