<svg id="layer" xmlns="http://www.w3.org/2000/svg" xmlns:xlink="http://www.w3.org/1999/xlink" viewBox="0 0 745 130"><defs><style>.cls-1{fill:url(#linear-gradient);}.cls-2{fill:#0460a9;}</style><linearGradient id="linear-gradient" x1="122.56" y1="-36.74" x2="249.46" y2="-36.74" gradientTransform="matrix(0.85, 0, 0, -0.85, -102.73, 39.56)" gradientUnits="userSpaceOnUse"><stop offset="0.3" stop-color="#e74a21"/><stop offset="0.7" stop-color="#ec9a1e"/></linearGradient></defs><g id="_Group_" data-name=" Group "><path id="_Path_" data-name=" Path " class="cls-1" d="M75.14,58.36l-.3.78c5,2.21,16.29,11,16.29,28.61,0,16.62-14,33.36-36,33.36-27.38,0-36.82-16-36.82-30.72,0-18.85,13.18-31.4,13.18-48.57a26.83,26.83,0,0,0-21.13-25.9l-.46.78a22.26,22.26,0,0,1,6.76,16.09C16.64,51.33,1,64.51,1,85.79c0,19.61,13.7,39.58,53.38,39.58,35.37,0,54-17.31,54-35.74C108.37,73.82,97.05,60.44,75.14,58.36Z"/><path id="_Compound_Path_" data-name=" Compound Path " class="cls-2" d="M230.5,122.21l-47-60.61v54.64l9.59,2.28V121H171.22v-2.51l7.83-2.28V56.7a16.79,16.79,0,0,0-6.7-3.81c-1-.2-2.24-.43-2.24-.43V50h18.55l40.16,52.21V54.8l-9.59-2.31V50h21.86v2.51l-7.83,2.31V109c0,5,.35,12.33.43,13.26Zm98.28-38.6c0,25.1-17.57,39.66-36.77,39.66s-36.84-14.76-36.84-37.7,17.57-37.85,36.67-37.85a35.76,35.76,0,0,1,36.92,34.57c0,.44,0,.9,0,1.35Zm-12.22,3.76c0-18.44-11-36.34-26.05-36.34-16,0-23.17,15.44-23.17,32s9.11,37,26.25,37C309.71,120,316.56,103.66,316.56,87.37ZM344,54.75l-7.53-2.31V49.93h28.83v2.51l-9,2.31L376.14,109l19.91-54.26-9-2.31V49.93h21.33v2.51l-7.53,2.31-24.92,67.64h-6.37Zm170.41,30h-4.56V53.67c15.05,0,24,3.46,24,15.76C533.76,78.57,525.93,84.74,514.38,84.74Zm129,33.78,10-2.28V54.77l-10-2.31V50h31.3v2.51l-10,2.31v61.47l10,2.28V121h-31.3Zm50.48-17h2l6.65,15.3A29.78,29.78,0,0,0,715.24,120c8.64,0,16.52-5,16.52-14,0-6.82-4.42-10.89-11.57-14.63l-7.08-3.66c-8.46-4.4-16.92-10.62-16.92-20.63,0-10.9,7.53-19.31,23.65-19.31a55.47,55.47,0,0,1,16.66,2.74l1.68,16.46h-2.13l-6.15-13.2A21.43,21.43,0,0,0,719.49,51c-8.16,0-13.71,5-13.71,12,0,6.3,4.19,10.27,11.37,14l8.38,4.37C737,87.27,742.4,92.77,742.4,102.94c0,12.54-11.77,20.35-26.4,20.35a62.78,62.78,0,0,1-20.31-3Zm-290.14,17,8.06-2.28L436.68,49.9,445,47.77l25.67,68.44,8.06,2.31V121H448.25v-2.51l10.31-2.31-7.27-19.67H423.93l-7.23,19.67L427,118.5V121H403.75Zm22.09-27.23H449.5L437.76,59.57Zm102.9-5c2.51-.63,16.59-4.22,16.59-17.57,0-10.72-8.21-19-28.44-19-12.55,0-25.1.27-26.68.32v2.51l8.26,2.31v61.39l-8.26,2.31V121h29.22v-2.51l-9.59-2.31V88.45h8.26l21.11,32.63H557.9v-2.51l-9.46-2.51Zm61.69-32.63v62.6l-10,2.28V121h31.3v-2.51l-10-2.28V53.67h16.89l5.57,12h2.16L624.66,50H567.42l-1.61,15.63H568l5.52-11.87ZM54.86,98.82,64.9,4H44.07l10,94.85Z"/></g></svg>