<svg height="512" viewBox="0 0 512 512" width="512" xmlns="http://www.w3.org/2000/svg"><g id="Flat"><path d="m448 424h-384l136-400h112z" fill="#fee97e"/><ellipse cx="256" cy="428" fill="#fadb43" rx="192" ry="60"/><path d="m272 184h-48v-64a16 16 0 0 1 16-16h36.468a16 16 0 0 1 15.179 10.94l12.353 37.06h-16v16a16 16 0 0 1 -16 16z" fill="#fec9a3"/><path d="m248 128h16v16h-16z" fill="#92563a"/><path d="m288 168c-18.772 0-28.6-9.284-29.657-10.343l11.314-11.314-.092-.089c.251.234 6.286 5.746 18.435 5.746z" fill="#92563a"/><path d="m216 280h80v128h-80z" fill="#4d5e78"/><path d="m248 304h16v104h-16z" fill="#3b495e"/><path d="m208 408h48a0 0 0 0 1 0 0v32a0 0 0 0 1 0 0h-48a16 16 0 0 1 -16-16 16 16 0 0 1 16-16z" fill="#92563a"/><path d="m272 408h48a0 0 0 0 1 0 0v32a0 0 0 0 1 0 0h-48a16 16 0 0 1 -16-16 16 16 0 0 1 16-16z" fill="#92563a" transform="matrix(-1 0 0 -1 576 848)"/><path d="m248 408h16v32h-16z" fill="#78462f"/><path d="m376 144-80 80v56h-80v-56l-80-80 24-24 64 64h64l64-64z" fill="#f35244"/><path d="m160 120-18.343-18.343a8 8 0 0 0 -11.314 0l-12.686 12.686a8 8 0 0 0 0 11.314l18.343 18.343z" fill="#fec9a3"/><path d="m352 120 18.343-18.343a8 8 0 0 1 11.314 0l12.686 12.686a8 8 0 0 1 0 11.314l-18.343 18.343z" fill="#fec9a3"/><path d="m280 80h-24a32 32 0 0 0 -32 32v32l24-32h32a16 16 0 0 0 16-16 16 16 0 0 0 -16-16z" fill="#92563a"/><path d="m48 56a50.6 50.6 0 0 0 32-32 50.6 50.6 0 0 0 32 32 50.6 50.6 0 0 0 -32 32 50.6 50.6 0 0 0 -32-32z" fill="#fee97e"/><path d="m296 226.02v53.98h-80v-15.75a461.519 461.519 0 0 0 80-38.23z" fill="#e64c3f"/></g></svg>