<svg id="layer" xmlns="http://www.w3.org/2000/svg" viewBox="0 0 745 130"><defs><style>.cls-1{fill:#fff;}.cls-2{fill:#009aa6;}</style></defs><polygon class="cls-1" points="183.99 42.43 161.93 42.43 161.93 32.93 216.74 32.93 216.74 42.43 194.67 42.43 194.67 96.31 183.99 96.31 183.99 42.43"/><polygon class="cls-1" points="226.72 32.93 238.22 32.93 252.89 81.05 266.86 32.93 276.84 32.93 290.57 81.05 290.8 81.05 305.24 32.93 316.74 32.93 296.67 96.31 285.17 96.31 271.67 49.83 258.29 96.31 246.79 96.31 226.72 32.93"/><path class="cls-1" d="M353.13,31.63c18.31,0,32.28,12.8,32.28,32.4,0,20.19-14,33.45-32.28,33.45S320.62,84.22,320.62,64C320.62,44.43,334.82,31.63,353.13,31.63Zm0,56.35c11.74,0,21.25-8.81,21.25-23.83C374.38,50,365.1,41,353.13,41s-21.24,8.81-21.24,23.13C331.89,79.05,341.16,88,353.13,88Z"/><polygon class="cls-1" points="478.37 32.93 489.05 32.93 489.05 67.08 489.05 96.31 478.37 96.31 478.37 60.86 478.37 32.93"/><path class="cls-1" d="M535.53,31.63a38.5,38.5,0,0,1,22.54,7.16S552,46.19,551.49,46a28.74,28.74,0,0,0-15.61-4.69c-12.91,0-21.48,9.27-21.48,22.89,0,14.44,8.1,23.83,21.48,23.83A28.52,28.52,0,0,0,548.56,85V69.78H532.71v-8.1h25.94v29a40.67,40.67,0,0,1-23,6.93c-19.84,0-32.28-13.5-32.28-33.45C503.25,45.49,516.05,31.63,535.53,31.63Z"/><polygon class="cls-1" points="573.91 32.93 584.95 32.93 605.72 62.62 626.5 32.93 637.53 32.93 637.53 96.31 626.97 96.31 626.97 48.89 605.72 78.82 584.48 48.89 584.48 96.31 573.91 96.31 573.91 32.93"/><path class="cls-1" d="M671.1,32.93h12.68l23.47,63.38H695.51l-4.69-13.73H664.17l-4.93,13.73H647.51Zm-4,41h20.54l-10.21-29.7h-.24Z"/><path class="cls-1" d="M422.15,82.58c5.63,3.16,11,5.16,18.07,5.16,8.34,0,12.44-3.4,12.44-8.57C452.66,65,417,74.24,417,50c0-10.1,8.57-18.2,22.77-18.2A46.52,46.52,0,0,1,463,37.62L456,45c-5.16-2.23-9.51-3.64-15.84-3.64-7.4,0-11.51,3.64-11.51,8.57,0,14.2,35.45,4.46,35.45,29.22,0,10.33-7.86,18.43-23.71,18.43-9.27,0-19.37-3.4-25.47-7.63Z"/><polygon class="cls-2" points="66.03 1 3 64.62 66.03 128 129.41 64.62 66.03 1"/><path class="cls-1" d="M32.81,82.58c-.47-20.43,23.71-17.73,23.71-28.06,0-3.4-2.46-6.34-8.33-6.34-4.34,0-8.57,2.23-11.5,4.93l-4.35-4.46A23.9,23.9,0,0,1,48.54,42c10,0,15.14,5.64,15.14,12.33,0,15.49-23.47,12.79-23.47,25.59H63.45V86H32.93v-3.4Z"/><path class="cls-1" d="M81.76,81.05c-4.7,0-7.63-2.93-7.63-8.8,0-7.4,4.93-14,10.8-14,4.69,0,7.63,2.93,7.63,8.8C92.44,74.48,87.63,81.05,81.76,81.05Zm29.58-28.52H85.4c-10.57,0-18.31,8.33-18.31,19.6,0,9.15,5.63,14.44,14,14.44C91.62,86.57,99.6,78,99.6,67a14.89,14.89,0,0,0-2.7-9.15h9Z"/></svg>